PathFileType	4	(X/Y/Z)	Patient4_TMGait_0pt4_03_left_02.trc.trc
DataRate	CameraRate	NumFrames	NumMarkers	Units	OrigDataRate	OrigDataStartFrame	OrigNumFrames
75.675675675676	75.675675675676	4	33	mm	75.675675675676	1	       141
Frame#	Time	Sacral			L.Shoulder			Chest			R.Shoulder			Neck			R.ASIS			L.ASIS			R.Thigh.Superior			R.Thigh.Lateral			R.Thigh.Inferior			R.Patella			L.Thigh.Superior			L.Thigh.Lateral			L.Thigh.Inferior			L.Patella			L.Shank.Superior			L.Shank.Lateral			L.Shank.Inferior			R.Shank.Superior			R.Shank.Lateral			R.Shank.Inferior			R.Heel			R.Midfoot.Superior			R.Midfoot.Lateral			R.Toe			L.Heel			L.Midfoot.Lateral			L.Midfoot.Superior			L.Toe			L.Elbow			L.Wrist			R.Elbow			R.Wrist			
		X1	Y1	Z1	X2	Y2	Z2	X3	Y3	Z3	X4	Y4	Z4	X5	Y5	Z5	X6	Y6	Z6	X7	Y7	Z7	X8	Y8	Z8	X9	Y9	Z9	X10	Y10	Z10	X11	Y11	Z11	X12	Y12	Z12	X13	Y13	Z13	X14	Y14	Z14	X15	Y15	Z15	X16	Y16	Z16	X17	Y17	Z17	X18	Y18	Z18	X19	Y19	Z19	X20	Y20	Z20	X21	Y21	Z21	X22	Y22	Z22	X23	Y23	Z23	X24	Y24	Z24	X25	Y25	Z25	X26	Y26	Z26	X27	Y27	Z27	X28	Y28	Z28	X29	Y29	Z29	X30	Y30	Z30	X31	Y31	Z31	X32	Y32	Z32	X33	Y33	Z33	

1	2.150000000000	799.315138113939	1007.174968185575	542.622480970209	948.550560962837	1440.063245360292	351.467353937489	1068.679010018729	1374.555813546959	501.810506199240	1001.244485866932	1442.387874477791	684.759571656388	941.688312551910	1499.811053481551	511.724438679385	1036.052455177906	945.608879439422	641.931587433504	1001.215099713086	971.171439090181	369.664982653520	1064.964035761221	740.828955263739	613.181884407118	978.662190073557	634.537904987507	675.233612760911	1051.454852759765	579.523697968635	594.202894728096	1046.338998374320	494.085644705924	599.791578438099	1086.955050389182	788.412223202590	383.712603120313	1036.546908788537	662.784561949053	301.979008647997	1147.030443403391	601.671128397989	348.379072870583	1161.701570569048	514.275861083282	337.686085383345	1100.308972564012	443.661228424639	333.249411976640	961.374327146538	389.965809460729	287.676546445370	962.540018451096	258.163608538478	340.265647968360	1018.654390755175	405.409594451419	606.238193987420	946.415893522837	301.239458715586	667.158645684901	988.259410283542	207.196102351766	601.032998393572	854.890460492235	42.778376963908	567.518074168703	1025.813354294222	96.741648306372	603.178384826507	938.419084687464	36.407038183328	641.676014902775	1146.745275549555	44.563811774001	629.501176325816	780.303210002679	175.351891843081	382.797677975043	838.974341474784	134.515655881460	300.365204110733	944.081665275252	153.968404405398	318.491099138102	1032.105257209802	50.272382353318	286.769731725061	910.957114982122	1086.668193109085	239.973412005642	1001.046470600510	839.684978278861	223.364191839747	1062.857675329409	1102.991339538424	817.524320628910	1276.615387922409	960.701761322223	779.108139953366	
2	2.163214285714	798.510639937557	1008.078916557382	544.097556970681	947.646871387864	1440.747662003511	353.337509971434	1068.884965440427	1374.546535132528	502.397379691049	1003.325233275992	1442.307814814745	686.026503823188	942.262017952819	1500.095171965554	513.626748248434	1035.407846195301	945.500989367429	642.113274390996	999.480044177864	971.740436101435	370.093743003466	1061.716838122136	740.362454132242	613.392213185591	974.412546163553	634.869813533379	675.835253704245	1046.390401056988	579.067523611607	594.922646370889	1040.770161780123	494.082372827838	600.592858719664	1085.624222280618	790.306211484444	383.619856175528	1036.384804090807	664.346314063118	301.638664694734	1147.340459017554	604.283603457592	347.988700809877	1163.435998637988	518.043208326612	336.929154956550	1105.097595474494	446.364503865457	331.979493323797	969.236974967539	386.223571123474	286.912023954237	977.999944791971	254.607695666953	337.848232332435	1012.841175057753	405.628530267439	606.884709816225	940.436596801603	301.437432040760	667.529268582208	982.534645577354	207.390323243939	601.505779165695	849.292105461601	42.818141850135	567.636418685704	1020.249756466857	96.761518258787	603.354450899679	932.768737734612	36.359249759760	641.741127428746	1141.104507279957	44.494314041723	629.557328752084	801.896760107086	161.779095850374	381.079305185777	861.292502624751	125.538336563681	297.514874412408	964.890074355132	150.362319712909	314.959375207629	1057.616175130602	52.554349861418	280.825214115739	900.701132067788	1088.455611153182	243.617357178249	979.888154919577	838.643135002811	228.040673130094	1072.482822434340	1104.819571510334	817.798978374385	1291.781682497043	974.561644103317	776.701789467657	
3	2.176428571429	797.718351425884	1008.950506250815	545.509683693526	946.774325055762	1441.398141325926	355.161129041682	1069.101315861289	1374.499746754926	502.952152777213	1005.391195446769	1442.185837594316	687.253171701902	942.842623027017	1500.342129117944	515.481511628143	1034.761737124328	945.372878492803	642.263553681950	997.782956409942	972.251334275435	370.481981562086	1058.490469821949	739.885525024160	613.572367651096	970.218622674406	635.179778400698	676.423474095023	1041.376447389992	578.608233482934	595.617186550443	1035.252568832127	494.058931623332	601.377788706297	1084.225387758022	792.026683528609	383.539192298837	1036.140360386306	665.781545881087	301.275376758636	1147.446725290700	606.673902156164	347.747037598155	1164.952883944428	521.635555164358	336.285170695081	1109.687447051409	448.968387460846	330.768988046165	977.072375684200	382.381458831319	286.074840113340	993.439018925679	251.073123826045	335.396158428127	1007.088168471047	405.832764989787	607.513773757896	934.516677644004	301.622870278928	667.893052234641	976.854144924617	207.571723824198	601.962336459476	843.723435896820	42.856373714504	567.750234724682	1014.718863934356	96.776073482314	603.520798329846	927.156040949768	36.311999046492	641.804539420866	1135.500744905379	44.425738286688	629.609643834280	823.641868585484	148.266971480048	379.172633697798	883.765303945542	116.648069438841	294.538777007349	985.750198045581	146.849624219474	311.395349061771	1083.132522811090	55.033082738967	274.951082310590	890.539880838995	1090.271463309239	247.205358297820	959.089595290169	837.749785698845	232.746015905566	1081.970225184002	1106.596171289151	817.993778446339	1306.638091416263	988.318389337705	774.275977204501	
4	2.189642857143	796.949363074254	1009.757367245314	546.793328019411	945.967266242933	1441.985415412802	356.876546071157	1069.333936765277	1374.385691129547	503.436236321812	1007.411532634453	1441.988358420339	688.388621829470	943.432778046688	1500.521158472596	517.228968356239	1034.117583140031	945.211162496592	642.350168807729	996.160485611336	972.654528109845	370.786315084307	1055.322285752224	739.391202779260	613.694415123932	966.142588358945	635.450546120465	676.976132971740	1036.472618130312	578.144712214617	596.254841990326	1029.846007752251	493.998456188745	602.119461932988	1082.703338531691	793.421549036440	383.471636984724	1035.723386257368	666.971895979067	300.870631612227	1147.183949877934	608.649353234312	347.730677004725	1166.060490761511	524.891941896652	335.826779183642	1113.888774570164	451.382226677237	329.664613327666	984.810790152380	378.399915595610	285.121010448139	1008.737033866889	247.627501171390	332.911834580673	1001.460560861243	406.010735351114	608.102091898499	928.718894431329	301.787924827268	668.238412553573	971.263095609469	207.730403724961	602.385011911467	838.213671325830	42.893621559454	567.855769392604	1009.251903241512	96.780865999111	603.668370887245	921.615942619663	36.266675854947	641.864799988880	1129.968102190429	44.358302384370	629.655592236938	845.517960728390	135.000886984188	376.971437446244	906.371878459004	108.005054945864	291.391802348424	1006.563143491541	143.557477315094	307.821647029413	1108.480316386191	57.872514941806	269.285755766839	880.617049084824	1092.131176097005	250.667467846574	939.036251278035	837.137780957378	237.488034898382	1091.158342559068	1108.269654032670	818.013769232885	1320.845202562226	1001.810522220698	771.817747275324	
